<svg width="70" height="70" viewBox="0 0 70 70" fill="none" xmlns="http://www.w3.org/2000/svg">
<rect width="70" height="70" rx="20" fill="#E9FCF3"/>
<g clip-path="url(#clip0_9254_565)">
<path d="M52.9204 27.7271C45.0615 24.3042 36.1658 25.2089 30.4474 30.7422C24.9431 36.0677 23.8724 44.2399 26.9533 51.6243C26.4209 52.1304 25.9304 52.5998 25.5015 53.015L26.7846 54.2565C27.2136 53.8412 27.6986 53.367 28.2218 52.8516C35.8536 55.8327 44.2998 54.7966 49.8038 49.4711C55.5227 43.9378 56.4581 35.3307 52.9204 27.7271Z" fill="#75A874"/>
<path d="M30.4474 30.0273C24.728 35.5606 23.7931 44.1678 27.3311 51.7713L52.9204 27.0122C45.0615 23.5894 36.1658 24.494 30.4474 30.0273Z" fill="#79C17A"/>
<path d="M49.8038 48.7562C44.0849 54.2895 35.1892 55.1946 27.3311 51.7713L52.9204 27.0122C56.4581 34.6158 55.5227 43.2229 49.8038 48.7562Z" fill="#67B765"/>
<path d="M26.2831 54.0266C26.475 53.9101 26.475 53.9101 26.7846 53.5414C32.9438 47.5815 49.7349 30.3417 50.2914 29.5557C49.4785 30.0937 31.6607 46.3404 25.5015 52.2999C25.1468 52.643 25 52.7846 25 52.7846L26.2831 54.0266Z" fill="#5AA25A"/>
<path d="M41.171 38.8492C41.171 38.8492 41.171 38.8492 41.171 38.3036C41.171 35.8496 40.6846 28.9545 40.5639 28.6821C40.4422 28.9545 39.9563 35.8496 39.9563 38.3036C39.9559 38.8492 39.9559 38.8492 39.9559 38.8492H41.171Z" fill="#5AA25A"/>
<path d="M34.7184 45.0923C34.7184 45.0923 34.7184 45.0923 34.7184 44.5468C34.7184 42.0927 34.2321 35.1976 34.1108 34.9253C33.9892 35.1976 33.5032 42.0931 33.5032 44.5468C33.5032 45.0923 33.5032 45.0923 33.5032 45.0923H34.7184Z" fill="#5AA25A"/>
<path d="M40.7946 38.4849C40.7946 38.4849 40.7946 38.4849 41.3584 38.4849C43.8947 38.4849 51.021 38.955 51.3025 39.0727C51.021 39.1905 43.8947 39.6606 41.3584 39.6606C40.7946 39.6606 40.7946 39.6606 40.7946 39.6606V38.4849Z" fill="#5AA25A"/>
<path d="M34.3422 44.728C34.3422 44.728 34.3422 44.728 34.9061 44.728C37.442 44.728 44.5687 45.1986 44.8502 45.3159C44.5687 45.4337 37.442 45.9038 34.9061 45.9038C34.3422 45.9042 34.3422 45.9042 34.3422 45.9042V44.728Z" fill="#5AA25A"/>
</g>
<defs>
<clipPath id="clip0_9254_565">
<rect width="20" height="20" fill="white" transform="translate(25 25)"/>
</clipPath>
</defs>
</svg>
