<svg width="35" height="35" viewBox="0 0 35 35" fill="none" xmlns="http://www.w3.org/2000/svg">
<path d="M31.1111 4.86108H3.88889C2.85749 4.86108 1.86834 5.2708 1.13903 6.00011C0.409721 6.72942 0 7.71858 0 8.74997L0 26.25C0 27.2814 0.409721 28.2705 1.13903 28.9998C1.86834 29.7291 2.85749 30.1389 3.88889 30.1389H31.1111C32.1425 30.1389 33.1317 29.7291 33.861 28.9998C34.5903 28.2705 35 27.2814 35 26.25V8.74997C35 7.71858 34.5903 6.72942 33.861 6.00011C33.1317 5.2708 32.1425 4.86108 31.1111 4.86108Z" fill="#DA251D"/>
<path d="M19.2043 15.5916L17.5 10.3464L15.7957 15.5916H10.2812L14.7428 18.832L13.0385 24.0771L17.5 20.8357L21.9615 24.0771L20.2572 18.832L24.7187 15.5916H19.2043Z" fill="#FFFF00"/>
</svg>
