<svg width="70" height="70" viewBox="0 0 70 70" fill="none" xmlns="http://www.w3.org/2000/svg">
<rect width="70" height="70" rx="20" fill="#D8E8FF"/>
<path d="M38.4068 24.0701C40.7885 23.5717 43.7433 23.5966 47.7641 24.5659C48.457 24.7329 48.8782 25.4099 48.7051 26.078C48.5319 26.7461 47.8298 27.1524 47.1369 26.9854C43.3986 26.0843 40.8573 26.1093 38.9554 26.5073C37.0475 26.9066 35.676 27.6983 34.2231 28.5545L34.1143 28.6187C32.7138 29.4446 31.1629 30.3591 29.1139 30.6884C26.9886 31.0299 24.4781 30.7279 21.1064 29.4273C20.4433 29.1716 20.1208 28.4458 20.3861 27.8064C20.6513 27.167 21.4039 26.856 22.0671 27.1118C25.1613 28.3054 27.1769 28.4712 28.6888 28.2283C30.2237 27.9817 31.3938 27.299 32.8744 26.4265C34.3311 25.5681 36.0309 24.5673 38.4068 24.0701Z" fill="#72B8FF"/>
<path d="M47.7641 29.5536C43.7433 28.5844 40.7885 28.5595 38.4068 29.0579C36.0309 29.555 34.3311 30.5558 32.8744 31.4143C31.3938 32.2867 30.2237 32.9695 28.6888 33.2161C27.1769 33.459 25.1613 33.2931 22.0671 32.0996C21.4039 31.8438 20.6513 32.1548 20.3861 32.7942C20.1208 33.4336 20.4433 34.1594 21.1064 34.4151C24.4781 35.7157 26.9886 36.0176 29.1139 35.6761C31.1629 35.3469 32.7138 34.4324 34.1143 33.6065L34.2231 33.5424C35.676 32.6861 37.0475 31.8943 38.9554 31.4951C40.8573 31.0971 43.3986 31.0721 47.1369 31.9731C47.8298 32.1402 48.5319 31.7339 48.7051 31.0658C48.8782 30.3977 48.457 29.7206 47.7641 29.5536Z" fill="#72B8FF"/>
<path fill-rule="evenodd" clip-rule="evenodd" d="M43.5709 32.5332C43.1219 32.5332 42.7477 32.7573 42.4866 33.0965C42.395 33.2162 42.183 33.4965 41.9015 33.8887C41.5269 34.4103 41.0257 35.1352 40.5222 35.9443C40.0213 36.7495 39.5044 37.66 39.1089 38.5496C38.7302 39.4016 38.3968 40.3267 38.3981 41.2646C38.399 41.5278 38.4316 41.7923 38.4764 42.0515C38.5511 42.484 38.7029 43.0795 39.0195 43.6901C39.3387 44.3057 39.8377 44.9592 40.6106 45.456C41.3915 45.958 42.3747 46.25 43.5709 46.25C44.7671 46.25 45.7502 45.958 46.5311 45.456C47.3039 44.9592 47.8031 44.3057 48.1222 43.6902C48.4388 43.0795 48.5908 42.484 48.6655 42.0516C48.7104 41.7921 48.7434 41.5268 48.7438 41.2633C48.7441 40.3255 48.4117 39.4017 48.0329 38.5496C47.6375 37.66 47.1206 36.7495 46.6196 35.9443C46.1162 35.1352 45.6148 34.4103 45.2403 33.8887C44.9588 33.4965 44.7467 33.2162 44.6551 33.0965C44.394 32.7573 44.0198 32.5332 43.5709 32.5332ZM45.6557 39.5321C45.3237 38.7851 44.8707 37.981 44.4018 37.2275C44.1166 36.7692 43.8307 36.3377 43.5709 35.9592C43.3111 36.3377 43.0251 36.7692 42.74 37.2275C42.2712 37.981 41.8182 38.7851 41.4862 39.5321L41.4673 39.5743C41.2388 40.088 40.9688 40.6952 40.9848 41.2626C41.0003 41.7113 41.1254 42.1746 41.333 42.5748C41.4986 42.8946 41.727 43.1763 42.0453 43.381C42.3555 43.5803 42.8273 43.756 43.5709 43.756C44.3145 43.756 44.7862 43.5803 45.0965 43.381C45.4148 43.1763 45.6431 42.8945 45.8089 42.5748C46.0165 42.1746 46.1415 41.7113 46.1571 41.2625C46.1732 40.6953 45.8842 40.0456 45.6557 39.5321Z" fill="#72B8FF"/>
<path d="M36.9794 40.0573C37.9627 39.7497 38.7165 40.7388 38.2541 41.6303C38.043 42.0377 37.8054 42.3843 37.3331 42.5456C36.0695 42.9771 35.0228 43.5847 33.9299 44.2287L33.8211 44.2928C32.4206 45.1187 30.8697 46.0332 28.8207 46.3624C26.6954 46.7039 24.1849 46.4021 20.8132 45.1014C20.1501 44.8457 19.8276 44.1199 20.0929 43.4806C20.3581 42.8411 21.1107 42.5301 21.7739 42.7859C24.8681 43.9794 26.8837 44.1453 28.3956 43.9024C29.9305 43.6558 31.1006 42.9731 32.5812 42.1006C33.9882 41.2714 35.4362 40.5402 36.9794 40.0573Z" fill="#72B8FF"/>
</svg>
