<svg width="179" height="130" viewBox="0 0 179 130" fill="none" xmlns="http://www.w3.org/2000/svg">
<g clip-path="url(#clip0_9003_2252)">
<path d="M97.8906 18.3566C96.8068 18.3566 95.7236 18.6371 94.9545 19.1957L19.7174 73.734C18.0393 74.9527 18.0393 76.8836 19.7174 78.0008L31.6041 86.6336C32.4432 87.243 33.4216 87.5461 34.5403 87.5461C35.6591 87.5461 36.78 87.243 37.4792 86.6336L97.8906 42.8586L142.641 75.3586V116.289C138.585 117.305 135.508 119.844 134.529 122.891H117.469V81.25C117.469 79.5234 115.651 78.2031 113.273 78.2031H82.5078C80.1305 78.2031 78.3125 79.5234 78.3125 81.25V122.891H53.1406V95.4688C53.1406 93.7422 51.3227 92.4219 48.9453 92.4219C46.568 92.4219 44.75 93.7422 44.75 95.4688V102.985C37.8977 104.204 32.5847 108.063 31.1862 113.04C24.3339 114.055 18.8795 118.016 17.3412 122.891H5.59375C3.21641 122.891 1.39844 124.211 1.39844 125.938C1.39844 127.664 3.21641 128.984 5.59375 128.984H138.445C140.823 128.984 142.641 127.664 142.641 125.938V124.922C142.641 123.195 144.459 121.875 146.836 121.875C149.213 121.875 151.031 123.195 151.031 124.922V125.938C151.031 127.664 152.849 128.984 155.227 128.984H159.422C161.799 128.984 163.617 127.664 163.617 125.938C163.617 124.211 161.799 122.891 159.422 122.891H159.143C158.164 119.844 155.087 117.305 151.031 116.289V81.4523L158.163 86.6336C159.002 87.243 159.98 87.5461 161.099 87.5461C162.218 87.5461 163.339 87.243 164.038 86.6336L175.925 78.0008C177.603 76.782 177.603 74.8512 175.925 73.734L100.827 19.1957C100.058 18.6371 98.9744 18.3566 97.8906 18.3566ZM97.8906 25.6961L167.113 75.9695L161.241 80.2344L100.827 36.4613C99.9877 35.852 99.0094 35.5469 97.8906 35.5469C96.7719 35.5469 95.7935 35.852 94.9545 36.4613L34.5403 80.2344L28.668 75.9695L97.8906 25.6961ZM89.5 102.578C91.8773 102.578 93.6953 103.898 93.6953 105.625C93.6953 107.352 91.8773 108.672 89.5 108.672C87.1227 108.672 85.3047 107.352 85.3047 105.625C85.3047 103.898 87.1227 102.578 89.5 102.578ZM44.75 109.382V122.891H26.1497C27.688 120.453 31.0453 118.828 34.9609 118.828C37.3383 118.828 39.1562 117.508 39.1562 115.781C39.1562 112.938 41.3937 110.499 44.75 109.382ZM173.406 122.891C172.294 122.891 171.226 123.212 170.44 123.783C169.653 124.354 169.211 125.129 169.211 125.938C169.211 126.746 169.653 127.521 170.44 128.092C171.226 128.663 172.294 128.984 173.406 128.984C174.519 128.984 175.586 128.663 176.373 128.092C177.16 127.521 177.602 126.746 177.602 125.938C177.602 125.129 177.16 124.354 176.373 123.783C175.586 123.212 174.519 122.891 173.406 122.891Z" fill="black"/>
</g>
<defs>
<clipPath id="clip0_9003_2252">
<rect width="179" height="130" fill="white"/>
</clipPath>
</defs>
</svg>
