<svg width="30" height="30" viewBox="0 0 30 30" fill="none" xmlns="http://www.w3.org/2000/svg">
<g clip-path="url(#clip0_9003_2212)">
<path d="M29.9841 15.2807C29.9841 14.0516 29.8821 13.1547 29.6612 12.2246H15.2988V17.7721H23.7292C23.5593 19.1507 22.6414 21.2269 20.6018 22.622L20.5732 22.8077L25.1143 26.2455L25.4289 26.2762C28.3184 23.6685 29.9841 19.8317 29.9841 15.2807Z" fill="#4285F4"/>
<path d="M15.2987 29.897C19.4289 29.897 22.8962 28.5682 25.4289 26.2762L20.6017 22.622C19.31 23.5023 17.5762 24.1169 15.2987 24.1169C11.2535 24.1169 7.8201 21.5093 6.5962 17.905L6.4168 17.9199L1.69487 21.4909L1.63312 21.6587C4.14864 26.5418 9.31572 29.897 15.2987 29.897Z" fill="#34A853"/>
<path d="M6.5964 17.905C6.27346 16.9749 6.08657 15.9782 6.08657 14.9485C6.08657 13.9187 6.27346 12.9221 6.57941 11.992L6.57085 11.7939L1.78974 8.16553L1.63332 8.23824C0.596548 10.2646 0.00164795 12.5401 0.00164795 14.9485C0.00164795 17.3569 0.596548 19.6323 1.63332 21.6587L6.5964 17.905Z" fill="#FBBC05"/>
<path d="M15.2987 5.78004C18.1712 5.78004 20.1088 6.99252 21.2136 8.00576L25.5308 3.8866C22.8794 1.47824 19.4289 0 15.2987 0C9.31575 0 4.14867 3.35508 1.63315 8.23821L6.57924 11.992C7.82013 8.38775 11.2535 5.78004 15.2987 5.78004Z" fill="#EB4335"/>
</g>
<defs>
<clipPath id="clip0_9003_2212">
<rect width="30" height="30" fill="white"/>
</clipPath>
</defs>
</svg>
