<svg width="30" height="30" viewBox="0 0 30 30" fill="none" xmlns="http://www.w3.org/2000/svg">
<g clip-path="url(#clip0_9003_2222)">
<path d="M14.9999 0C6.7152 0.000585937 0.000585937 6.71496 0 14.9999C0.000585937 23.2854 6.71777 29.9605 14.9957 29.9998H15.0152L15.0326 29.9992C16.6219 30.0015 17.9334 29.4996 18.8389 28.6754C19.7453 27.8545 20.2292 26.7269 20.2281 25.5854C20.2293 25.0494 20.1159 24.5128 19.9046 24.0019C20.2612 23.799 20.4989 23.6145 20.5668 23.5658C20.81 23.3925 21.5043 22.4662 21.0175 21.7031C20.5286 20.9405 18.7885 19.2024 18.3133 18.908C17.8395 18.6142 17.0478 18.9008 16.6665 19.4603C16.2841 20.0199 15.9825 19.8523 15.9825 19.8523C15.9825 19.8523 14.8976 18.9759 13.3971 15.9487C11.8967 12.9197 11.8583 11.5276 11.8583 11.5276C11.8583 11.5276 11.9071 11.185 12.5841 11.2192C13.2597 11.2556 13.9668 10.7992 14.0206 10.243C14.075 9.68848 13.7453 7.24939 13.4347 6.39937C13.1232 5.54883 11.9662 5.54098 11.6811 5.62957C11.3946 5.71758 8.45648 6.43301 8.22322 9.50906C7.99084 12.5856 8.78367 15.379 9.9191 17.6717C11.0551 19.9638 12.7977 22.2868 15.3859 23.965C16.4341 24.6446 17.4401 24.7326 18.2859 24.5902C18.4314 24.9148 18.5037 25.2518 18.5054 25.5854C18.5037 26.2471 18.2346 26.8952 17.6812 27.3998C17.1264 27.9016 16.2708 28.2745 15.0328 28.2768L15.0025 28.2773C7.66389 28.2397 1.72189 22.3294 1.72248 14.9999C1.72307 11.3307 3.20719 8.01633 5.61117 5.611C8.01662 3.2073 11.3306 1.72307 14.9999 1.72248C18.6691 1.72307 21.9831 3.20725 24.3885 5.611C26.7928 8.01639 28.2764 11.3301 28.2775 14.9999C28.2769 17.2657 27.7112 19.3924 26.7132 21.2568C26.1547 22.3019 25.4595 23.2624 24.652 24.1168C24.3257 24.4628 24.3414 25.0078 24.6868 25.3342C25.0322 25.661 25.5778 25.6459 25.9046 25.3C26.8152 24.3355 27.6002 23.2506 28.2315 22.0692C29.3596 19.9638 30 17.5539 30 14.9999C29.9988 6.71496 23.2845 0.000585937 14.9999 0Z" fill="black"/>
</g>
<defs>
<clipPath id="clip0_9003_2222">
<rect width="30" height="30" fill="white"/>
</clipPath>
</defs>
</svg>
