<svg width="70" height="70" viewBox="0 0 70 70" fill="none" xmlns="http://www.w3.org/2000/svg">
<rect width="70" height="70" rx="25.7895" fill="#FFF0E5"/>
<path d="M41.1257 25.6327C41.1257 19.777 31.9106 19.7752 31.9115 25.6327V38.0433C30.7137 39.1908 29.9717 40.7817 29.9717 42.5395C29.9717 46.0345 32.9028 48.8677 36.5186 48.8677C40.1345 48.8677 43.0655 46.0345 43.0655 42.5395C43.0655 40.7817 42.3236 39.1908 41.1257 38.0433V25.6327ZM36.5186 47.422C33.7059 47.422 31.4266 45.218 31.4266 42.4992C31.4266 41.0433 32.0803 39.7355 33.1191 38.8345L33.1239 38.8308L33.1297 38.8195C33.2558 38.7052 33.3383 38.5477 33.3538 38.3723V38.3695C33.3548 38.3564 33.3606 38.347 33.3616 38.3339L33.3674 38.3067V25.6317C33.3645 25.582 33.3625 25.5239 33.3625 25.4648C33.3625 23.8673 34.702 22.5727 36.3547 22.5727C36.4129 22.5727 36.4711 22.5745 36.5283 22.5773H36.5206C36.57 22.5745 36.6273 22.5727 36.6855 22.5727C38.3382 22.5727 39.6776 23.8673 39.6776 25.4648C39.6776 25.5239 39.6757 25.582 39.6718 25.6392V25.6317V38.3067L39.6776 38.3339L39.6844 38.3677C39.699 38.5467 39.7824 38.7052 39.9085 38.8195L39.9143 38.8308C40.9579 39.7364 41.6116 41.0442 41.6116 42.4992C41.6116 45.218 39.3314 47.4211 36.5186 47.422ZM46.7027 22.1095C44.9617 22.1095 43.5505 23.4736 43.5505 25.1564C43.5505 26.8392 44.9617 28.2033 46.7027 28.2033C48.4437 28.2033 49.8549 26.8392 49.8549 25.1564C49.853 23.4745 48.4427 22.1114 46.7027 22.1095ZM46.7027 26.797C45.7658 26.797 45.0054 26.062 45.0054 25.1564C45.0054 24.2508 45.7658 23.5158 46.7027 23.5158C47.6397 23.5158 48.4001 24.2508 48.4001 25.1564C48.3991 26.062 47.6397 26.7961 46.7027 26.797Z" fill="#E08750"/>
</svg>
